<?xml version="1.0" encoding="utf-8"?>
<!-- Generator: Adobe Illustrator 20.0.0, SVG Export Plug-In . SVG Version: 6.00 Build 0)  -->
<svg version="1.1" id="Layer_1" xmlns="http://www.w3.org/2000/svg" xmlns:xlink="http://www.w3.org/1999/xlink" x="0px" y="0px"
	 width="257.6px" height="44.7px" viewBox="0 0 257.6 44.7" style="enable-background:new 0 0 257.6 44.7;" xml:space="preserve">
<style type="text/css">
	.st0{fill:#0F145B;}
	.st1{fill:#2D6CB5;}
	.st2{fill:#94A4CA;}
	.st3{fill:#F7941E;}
</style>
<g>
	<path class="st0" d="M43.3,14.7c0,2.3-1.9,4.2-4.2,4.2H4.2C1.9,19,0,17.1,0,14.7c0-2.3,1.9-4.2,4.2-4.2H39
		C41.4,10.5,43.3,12.4,43.3,14.7"/>
	<path class="st1" d="M37.3,27.3c0,2.3-1.9,4.2-4.2,4.2H4.2c-2.3,0-4.2-1.9-4.2-4.2s1.9-4.2,4.2-4.2h28.9
		C35.4,23.1,37.3,25,37.3,27.3"/>
	<path class="st2" d="M28.8,39.8c0,2.3-1.9,4.2-4.2,4.2H4.2C1.9,44,0,42.1,0,39.8s1.9-4.2,4.2-4.2h20.4
		C26.9,35.6,28.8,37.5,28.8,39.8"/>
	<path class="st0" d="M62.5,40.2l-1.6-4.1H47.5l-1.6,4.2c-0.6,1.7-1.1,2.8-1.6,3.3c-0.4,0.6-1.1,0.9-2.1,0.9c-0.8,0-1.6-0.3-2.2-0.9
		c-0.6-0.6-1-1.3-1-2.1c0-0.4,0.1-0.9,0.2-1.4c0.1-0.5,0.4-1.1,0.7-2l8.4-21.4c0.2-0.6,0.5-1.4,0.9-2.2c0.3-0.9,0.7-1.6,1.1-2.1
		c0.4-0.6,0.9-1,1.5-1.4s1.4-0.5,2.3-0.5c0.9,0,1.7,0.2,2.3,0.5c0.6,0.4,1.1,0.8,1.5,1.4c0.4,0.6,0.7,1.2,1,1.8s0.6,1.5,1,2.6
		l8.6,21.3c0.7,1.6,1,2.8,1,3.5c0,0.8-0.3,1.5-1,2.1c-0.6,0.6-1.4,1-2.3,1c-0.5,0-1-0.1-1.4-0.3s-0.7-0.4-0.9-0.8
		c-0.3-0.3-0.5-0.8-0.8-1.5C62.9,41.3,62.7,40.7,62.5,40.2 M49.2,31.1h9.9l-5-13.6L49.2,31.1z"/>
	<path class="st0" d="M79.1,14.5v24h13.5c1.1,0,1.9,0.3,2.5,0.8s0.9,1.2,0.9,2s-0.3,1.5-0.9,2s-1.4,0.8-2.5,0.8H76.5
		c-1.5,0-2.5-0.3-3.1-1c-0.6-0.6-1-1.7-1-3.1V14.5c0-1.4,0.3-2.4,0.9-3c0.6-0.7,1.4-1,2.4-1s1.8,0.3,2.4,1
		C78.8,12.1,79.1,13.1,79.1,14.5"/>
	<path class="st0" d="M120.9,40.2l-1.6-4.1h-13.4l-1.6,4.2c-0.6,1.7-1.1,2.8-1.6,3.3c-0.4,0.6-1.1,0.9-2.1,0.9
		c-0.8,0-1.6-0.3-2.2-0.9c-0.6-0.6-1-1.3-1-2.1c0-0.4,0.1-0.9,0.2-1.4c0.2-0.5,0.4-1.1,0.7-2l8.4-21.4c0.2-0.6,0.5-1.4,0.9-2.2
		c0.3-0.9,0.7-1.6,1.1-2.1c0.4-0.6,0.9-1,1.5-1.4s1.4-0.5,2.3-0.5s1.7,0.2,2.3,0.5c0.6,0.4,1.1,0.8,1.5,1.4c0.4,0.6,0.7,1.2,1,1.8
		s0.6,1.5,1,2.6l8.6,21.3c0.7,1.6,1,2.8,1,3.5c0,0.8-0.3,1.5-1,2.1c-0.6,0.6-1.4,1-2.3,1c-0.5,0-1-0.1-1.4-0.3s-0.7-0.4-0.9-0.8
		c-0.3-0.3-0.5-0.8-0.8-1.5C121.4,41.3,121.1,40.7,120.9,40.2 M107.7,31.1h9.9l-5-13.6L107.7,31.1z"/>
	<path class="st0" d="M145.7,44h-10.1c-1.5,0-2.5-0.3-3.1-1s-0.9-1.7-0.9-3.1V15.1c0-1.5,0.3-2.5,1-3.1c0.6-0.6,1.7-1,3.1-1h10.7
		c1.6,0,2.9,0.1,4.1,0.3c1.2,0.2,2.2,0.6,3.1,1.1c0.8,0.5,1.5,1.1,2.1,1.8s1.1,1.5,1.4,2.4c0.3,0.9,0.5,1.8,0.5,2.7
		c0,3.3-1.7,5.7-5,7.2c4.3,1.4,6.5,4.1,6.5,8.1c0,1.8-0.5,3.5-1.4,5s-2.2,2.6-3.8,3.3c-1,0.4-2.2,0.7-3.5,0.9
		C149,43.9,147.5,44,145.7,44 M138.3,16v8.5h6.1c1.7,0,3-0.2,3.9-0.5s1.6-0.9,2.1-1.8c0.4-0.6,0.6-1.3,0.6-2.1
		c0-1.7-0.6-2.8-1.8-3.3s-3-0.8-5.4-0.8C143.8,16,138.3,16,138.3,16z M145.2,29.3h-7v9.6h7.2c4.5,0,6.8-1.6,6.8-4.9
		c0-1.7-0.6-2.9-1.8-3.6C149.3,29.7,147.6,29.3,145.2,29.3"/>
	<path class="st0" d="M177.6,10.4c3.4,0,6.4,0.7,8.8,2.1c2.5,1.4,4.3,3.4,5.6,5.9c1.3,2.6,1.9,5.6,1.9,9c0,2.5-0.3,4.9-1,7
		c-0.7,2.1-1.7,3.9-3.1,5.4c-1.4,1.5-3.1,2.7-5.1,3.5s-4.3,1.2-6.9,1.2c-2.6,0-4.9-0.4-6.9-1.2s-3.7-2-5.1-3.5
		c-1.4-1.5-2.4-3.3-3.1-5.5c-0.7-2.1-1-4.4-1-6.9s0.4-4.9,1.1-7c0.7-2.1,1.8-3.9,3.2-5.4s3.1-2.6,5-3.4
		C172.8,10.8,175.1,10.4,177.6,10.4 M187.1,27.4c0-2.4-0.4-4.5-1.2-6.3c-0.8-1.8-1.9-3.1-3.3-4c-1.4-0.9-3.1-1.4-5-1.4
		c-1.3,0-2.6,0.3-3.7,0.8c-1.1,0.5-2.1,1.2-2.9,2.2c-0.8,1-1.5,2.2-1.9,3.7c-0.5,1.5-0.7,3.2-0.7,5c0,1.9,0.2,3.6,0.7,5.1
		s1.1,2.8,2,3.8s1.9,1.7,3,2.2s2.3,0.7,3.7,0.7c1.7,0,3.3-0.4,4.7-1.3c1.4-0.9,2.6-2.2,3.4-4C186.7,32.2,187.1,30,187.1,27.4"/>
	<path class="st0" d="M213,10.4c3.4,0,6.4,0.7,8.8,2.1c2.5,1.4,4.3,3.4,5.6,5.9c1.3,2.6,1.9,5.6,1.9,9c0,2.5-0.3,4.9-1,7
		c-0.7,2.1-1.7,3.9-3.1,5.4c-1.4,1.5-3.1,2.7-5.1,3.5s-4.3,1.2-6.9,1.2c-2.6,0-4.9-0.4-6.9-1.2s-3.7-2-5.1-3.5
		c-1.4-1.5-2.4-3.3-3.1-5.5c-0.7-2.1-1-4.4-1-6.9s0.4-4.9,1.1-7c0.7-2.1,1.8-3.9,3.2-5.4s3.1-2.6,5-3.4
		C208.2,10.8,210.5,10.4,213,10.4 M222.5,27.4c0-2.4-0.4-4.5-1.2-6.3c-0.8-1.8-1.9-3.1-3.3-4c-1.4-0.9-3.1-1.4-5-1.4
		c-1.3,0-2.6,0.3-3.7,0.8c-1.1,0.5-2.1,1.2-2.9,2.2c-0.8,1-1.5,2.2-1.9,3.7c-0.5,1.5-0.7,3.2-0.7,5c0,1.9,0.2,3.6,0.7,5.1
		s1.1,2.8,2,3.8s1.9,1.7,3,2.2s2.3,0.7,3.7,0.7c1.7,0,3.3-0.4,4.7-1.3c1.4-0.9,2.6-2.2,3.4-4C222.1,32.2,222.5,30,222.5,27.4"/>
	<path class="st0" d="M240.7,14.5v24h13.5c1.1,0,1.9,0.3,2.5,0.8s0.9,1.2,0.9,2s-0.3,1.5-0.9,2s-1.4,0.8-2.5,0.8h-16.1
		c-1.5,0-2.5-0.3-3.1-1c-0.6-0.6-1-1.7-1-3.1V14.5c0-1.4,0.3-2.4,0.9-3c0.6-0.7,1.4-1,2.4-1s1.8,0.3,2.4,1
		C240.4,12.1,240.7,13.1,240.7,14.5"/>
	<polygon class="st3" points="183.8,1.5 183.8,7.8 174.8,7.8 173.2,7.8 	"/>
</g>
</svg>
